<?xml version="1.0" encoding="UTF-8" standalone="no"?>
<svg
   xmlns:dc="http://purl.org/dc/elements/1.1/"
   xmlns:cc="http://creativecommons.org/ns#"
   xmlns:rdf="http://www.w3.org/1999/02/22-rdf-syntax-ns#"
   xmlns:svg="http://www.w3.org/2000/svg"
   xmlns="http://www.w3.org/2000/svg"
   version="1.1"
   id="svg4776"
   viewBox="0 0 352.37036 101.90813"
   height="28.760738mm"
   width="99.446747mm">
  <defs
     id="defs4778">
    <clipPath
       id="clipPath396"
       clipPathUnits="userSpaceOnUse">
      <path
         id="path398"
         d="m 19.974,604.677 347.379,0 0,90.988 -347.379,0 0,-90.988 z" />
    </clipPath>
    <clipPath
       id="clipPath364"
       clipPathUnits="userSpaceOnUse">
      <path
         id="path366"
         d="m 128.019,692.219 0.268,-26.78 c 0,0 -44.165,24.617 -46.347,25.807 l 0,0 c -2.186,1.193 -4.284,1.157 -6.169,-0.053 l 0,0 C 74.412,690.325 60.375,681.4 58.536,680.331 l 0,0 c -1.899,-1.106 -2.413,-2.167 -2.413,-2.167 l 0,0 95.188,-54.344 c 0,0 0.49,0.821 0.535,1.827 l 0,0 c 0.035,0.754 -0.599,49.146 -0.631,50.403 l 0,0 c -0.074,2.713 -0.725,4.003 -2.296,4.928 l 0,0 c -1.007,0.593 -12.584,7.229 -18.079,10.298 l 0,0 c -1.535,0.856 -2.395,0.95 -2.697,0.95 l 0,0 c -0.084,0 -0.124,-0.007 -0.124,-0.007" />
    </clipPath>
    <clipPath
       id="clipPath374"
       clipPathUnits="userSpaceOnUse">
      <path
         id="path376"
         d="m 56.122814,692.43891 95.757636,0 0,-68.61881 -95.757636,0 0,68.61881 z" />
    </clipPath>
    <linearGradient
       id="linearGradient378"
       spreadMethod="pad"
       gradientTransform="matrix(95.725098,0,0,-95.725098,56.122805,658.02306)"
       gradientUnits="userSpaceOnUse"
       y2="0"
       x2="1"
       y1="0"
       x1="0">
      <stop
         id="stop380"
         offset="0"
         style="stop-opacity:1;stop-color:#80d6f7" />
      <stop
         id="stop382"
         offset="0.16299281"
         style="stop-opacity:1;stop-color:#2e9bdd" />
      <stop
         id="stop384"
         offset="0.5"
         style="stop-opacity:1;stop-color:#2e9bdd" />
      <stop
         id="stop386"
         offset="0.76213357"
         style="stop-opacity:1;stop-color:#2e9bdd" />
      <stop
         id="stop388"
         offset="1"
         style="stop-opacity:1;stop-color:#293f9c" />
    </linearGradient>
    <clipPath
       id="clipPath336"
       clipPathUnits="userSpaceOnUse">
      <path
         id="path338"
         d="m 80.838,610.7 c 0,0 0.813,-0.034 1.587,0.457 l 0,0 c 0.919,0.578 22.204,13.153 22.204,13.153 l 0,0 -23.563,13.348 -0.228,-26.958 z" />
    </clipPath>
    <clipPath
       id="clipPath346"
       clipPathUnits="userSpaceOnUse">
      <path
         id="path348"
         d="m 80.837654,637.65818 23.791056,0 0,-26.99166 -23.791056,0 0,26.99166 z" />
    </clipPath>
    <linearGradient
       id="linearGradient350"
       spreadMethod="pad"
       gradientTransform="matrix(23.790652,0,0,-23.790652,80.837824,624.17871)"
       gradientUnits="userSpaceOnUse"
       y2="0"
       x2="1"
       y1="0"
       x1="0">
      <stop
         id="stop352"
         offset="0"
         style="stop-opacity:1;stop-color:#2e9bdd" />
      <stop
         id="stop354"
         offset="0.73696312"
         style="stop-opacity:1;stop-color:#293f9c" />
      <stop
         id="stop356"
         offset="1"
         style="stop-opacity:1;stop-color:#293f9c" />
    </linearGradient>
    <clipPath
       id="clipPath260"
       clipPathUnits="userSpaceOnUse">
      <path
         id="path262"
         d="m 19.974,604.677 347.379,0 0,90.988 -347.379,0 0,-90.988 z" />
    </clipPath>
  </defs>
  <metadata
     id="metadata4781">
    <rdf:RDF>
      <cc:Work
         rdf:about="">
        <dc:format>image/svg+xml</dc:format>
        <dc:type
           rdf:resource="http://purl.org/dc/dcmitype/StillImage" />
        <dc:title></dc:title>
      </cc:Work>
    </rdf:RDF>
  </metadata>
  <g
     transform="translate(-81.987352,-588.6576)"
     id="layer1">
    <g
       id="g5484">
      <g
         id="g252"
         transform="matrix(1.25,0,0,-1.25,245.76372,650.69088)">
        <path
           d="m 0,0 -11.368,17.85 0,-17.85 -8.726,0 0,35.501 7.629,0 11.368,-17.85 0,17.85 8.726,0 L 7.629,0 0,0 Z"
           style="fill:#2e2a2b;fill-opacity:1;fill-rule:nonzero;stroke:none"
           id="path254" />
      </g>
      <g
         transform="matrix(1.25,0,0,-1.25,12.645102,1453.9401)"
         id="g256">
        <g
           id="g258"
           clip-path="url(#clipPath260)">
          <g
             id="g264"
             transform="translate(216.6603,669.0754)">
            <path
               d="m 0,0 c -0.648,0.848 -1.895,1.546 -3.49,1.546 -1.596,0 -2.842,-0.698 -3.49,-1.546 -0.798,-1.047 -1.297,-2.244 -1.297,-8.726 0,-6.481 0.499,-7.628 1.297,-8.675 0.648,-0.848 1.894,-1.596 3.49,-1.596 1.595,0 2.842,0.748 3.49,1.596 0.798,1.047 1.296,2.194 1.296,8.675 C 1.296,-2.244 0.798,-1.047 0,0 m 6.382,-22.886 c -2.543,-2.543 -5.534,-3.889 -9.872,-3.889 -4.338,0 -7.33,1.346 -9.873,3.889 -3.639,3.64 -3.639,8.177 -3.639,14.16 0,5.984 0,10.521 3.639,14.161 2.543,2.543 5.535,3.889 9.873,3.889 4.338,0 7.329,-1.346 9.872,-3.889 3.64,-3.64 3.64,-8.177 3.64,-14.161 0,-5.983 0,-10.52 -3.64,-14.16"
               style="fill:#2e2a2b;fill-opacity:1;fill-rule:nonzero;stroke:none"
               id="path266" />
          </g>
          <g
             id="g268"
             transform="translate(245.8785,670.272)">
            <path
               d="m 0,0 -4.936,0 0,-7.18 4.936,0 c 2.393,0 3.789,1.745 3.789,3.59 C 3.789,-1.745 2.393,0 0,0 m 4.288,-27.673 -6.282,13.213 -2.942,0 0,-13.213 -8.726,0 0,35.501 14.061,0 c 7.878,0 12.116,-5.584 12.116,-11.418 0,-4.836 -2.992,-7.878 -5.784,-9.274 l 7.679,-14.809 -10.122,0 z"
               style="fill:#2e2a2b;fill-opacity:1;fill-rule:nonzero;stroke:none"
               id="path270" />
          </g>
          <g
             id="g272"
             transform="translate(280.9799,668.3275)">
            <path
               d="m 0,0 c -0.798,1.197 -1.994,1.994 -4.188,1.994 l -3.84,0 0,-19.944 3.84,0 c 2.194,0 3.39,0.798 4.188,1.995 0.698,0.997 0.947,1.944 0.947,7.977 C 0.947,-1.994 0.698,-0.997 0,0 M 7.928,-19.745 C 5.485,-23.684 1.745,-25.728 -3.59,-25.728 l -13.163,0 0,35.501 13.163,0 c 5.335,0 9.075,-2.045 11.518,-5.984 1.745,-2.842 1.745,-5.634 1.745,-11.767 0,-6.133 0,-8.925 -1.745,-11.767"
               style="fill:#2e2a2b;fill-opacity:1;fill-rule:nonzero;stroke:none"
               id="path274" />
          </g>
          <path
             d="m 296.187,678.1 8.726,0 0,-35.501 -8.726,0 0,35.501 z"
             style="fill:#2e2a2b;fill-opacity:1;fill-rule:nonzero;stroke:none"
             id="path276" />
          <g
             id="g278"
             transform="translate(323.9581,642.3003)">
            <path
               d="m 0,0 c -4.338,0 -7.329,1.346 -9.872,3.889 -3.64,3.64 -3.64,8.177 -3.64,14.16 0,5.984 0,10.521 3.64,14.161 2.543,2.543 5.534,3.889 9.872,3.889 6.731,0 12.116,-3.74 13.412,-11.568 l -8.875,0 c -0.548,1.995 -1.645,3.79 -4.537,3.79 -1.596,0 -2.792,-0.648 -3.44,-1.496 -0.798,-1.047 -1.347,-2.294 -1.347,-8.776 0,-6.481 0.549,-7.728 1.347,-8.775 0.648,-0.848 1.844,-1.496 3.44,-1.496 2.892,0 3.989,1.795 4.537,3.79 l 8.875,0 C 12.116,3.74 6.731,0 0,0"
               style="fill:#2e2a2b;fill-opacity:1;fill-rule:nonzero;stroke:none"
               id="path280" />
          </g>
          <g
             id="g282"
             transform="translate(171.4261,632.9767)">
            <path
               d="m 0,0 c -0.527,0.319 -1.213,0.511 -1.898,0.511 -1.053,0 -1.739,-0.718 -1.739,-1.66 0,-0.718 0.287,-1.164 1.882,-2.089 1.723,-0.99 2.297,-1.963 2.297,-3.239 0,-1.771 -1.1,-3.158 -3.238,-3.158 -0.894,0 -1.739,0.191 -2.329,0.478 l 0,1.452 c 0.638,-0.383 1.468,-0.718 2.122,-0.718 1.26,0 1.978,0.845 1.978,1.755 0,0.861 -0.223,1.356 -1.723,2.265 -2.01,1.212 -2.457,1.898 -2.457,3.334 0,1.835 1.404,2.792 3.095,2.792 0.734,0 1.515,-0.16 2.01,-0.367 L 0,0 Z"
               style="fill:#2e2a2b;fill-opacity:1;fill-rule:nonzero;stroke:none"
               id="path284" />
          </g>
          <g
             id="g286"
             transform="translate(179.0213,634.5879)">
            <path
               d="m 0,0 5.185,0 0,-1.212 -3.781,0 0,-3.542 3.605,0 0,-1.212 -3.605,0 0,-3.957 3.988,0 0,-1.212 -5.392,0 L 0,0 Z"
               style="fill:#2e2a2b;fill-opacity:1;fill-rule:nonzero;stroke:none"
               id="path288" />
          </g>
          <g
             id="g290"
             transform="translate(191.5144,634.5879)">
            <path
               d="m 0,0 2.17,0 2.791,-8.854 0.032,0 2.856,8.854 2.106,0 0,-11.135 -1.341,0 0,9.604 -0.032,0 -3.158,-9.604 -1.021,0 -3.031,9.604 -0.032,0 0,-9.604 -1.34,0 L 0,0 Z"
               style="fill:#2e2a2b;fill-opacity:1;fill-rule:nonzero;stroke:none"
               id="path292" />
          </g>
          <path
             d="m 209.033,634.588 1.404,0 0,-11.135 -1.404,0 0,11.135 z"
             style="fill:#2e2a2b;fill-opacity:1;fill-rule:nonzero;stroke:none"
             id="path294" />
          <g
             id="g296"
             transform="translate(224.5725,623.6762)">
            <path
               d="m 0,0 c -0.67,-0.207 -1.372,-0.335 -2.026,-0.335 -3.526,0 -5.009,2.68 -5.009,5.695 0,3.478 2.026,5.664 4.929,5.664 0.798,0 1.596,-0.144 2.106,-0.399 L 0,9.253 c -0.606,0.382 -1.308,0.558 -2.09,0.558 -1.818,0 -3.478,-1.452 -3.478,-4.164 0,-2.871 1.149,-4.769 3.574,-4.769 0.718,0 1.42,0.191 1.994,0.526 L 0,0 Z"
               style="fill:#2e2a2b;fill-opacity:1;fill-rule:nonzero;stroke:none"
               id="path298" />
          </g>
          <g
             id="g300"
             transform="translate(235.2629,624.49)">
            <path
               d="M 0,0 C 1.468,0 2.712,1.212 2.712,4.642 2.712,6.891 2.01,9.061 0.127,9.061 -1.34,9.061 -2.584,7.849 -2.584,4.419 -2.584,2.169 -1.883,0 0,0 M 0.127,10.21 C 2.6,10.21 4.18,8.088 4.18,4.642 4.18,0.798 2.632,-1.149 0,-1.149 c -2.473,0 -4.052,2.122 -4.052,5.568 0,3.845 1.547,5.791 4.179,5.791"
               style="fill:#2e2a2b;fill-opacity:1;fill-rule:nonzero;stroke:none"
               id="path302" />
          </g>
          <g
             id="g304"
             transform="translate(246.5438,634.5879)">
            <path
               d="m 0,0 1.739,0 4.196,-9.189 0.031,0 0,9.189 1.34,0 0,-11.135 -1.738,0 -4.196,9.125 -0.032,0 0,-9.125 -1.34,0 L 0,0 Z"
               style="fill:#2e2a2b;fill-opacity:1;fill-rule:nonzero;stroke:none"
               id="path306" />
          </g>
          <g
             id="g308"
             transform="translate(262.6589,624.6652)">
            <path
               d="M 0,0 0.845,0 C 3.302,0 4.578,1.675 4.578,4.531 4.578,6.86 3.589,8.71 0.845,8.71 L 0,8.71 0,0 Z m -1.404,9.923 2.425,0 C 2.504,9.923 3.35,9.572 3.988,9.125 4.977,8.439 6.046,7.036 6.046,4.531 6.046,1.308 4.514,-1.212 0.335,-1.212 l -1.739,0 0,11.135 z"
               style="fill:#2e2a2b;fill-opacity:1;fill-rule:nonzero;stroke:none"
               id="path310" />
          </g>
          <g
             id="g312"
             transform="translate(282.6662,627.5529)">
            <path
               d="m 0,0 c 0,-1.101 -0.064,-1.707 -0.447,-2.489 -0.462,-0.925 -1.436,-1.723 -3.047,-1.723 -1.611,0 -2.584,0.798 -3.046,1.723 -0.383,0.782 -0.448,1.388 -0.448,2.489 l 0,7.035 1.404,0 0,-7.242 c 0,-1.739 0.766,-2.856 2.09,-2.856 1.324,0 2.09,1.117 2.09,2.856 l 0,7.242 L 0,7.035 0,0 Z"
               style="fill:#2e2a2b;fill-opacity:1;fill-rule:nonzero;stroke:none"
               id="path314" />
          </g>
          <g
             id="g316"
             transform="translate(296.8024,623.6762)">
            <path
               d="m 0,0 c -0.67,-0.207 -1.372,-0.335 -2.026,-0.335 -3.526,0 -5.009,2.68 -5.009,5.695 0,3.478 2.026,5.664 4.929,5.664 0.798,0 1.596,-0.144 2.106,-0.399 L 0,9.253 c -0.606,0.382 -1.308,0.558 -2.09,0.558 -1.818,0 -3.478,-1.452 -3.478,-4.164 0,-2.871 1.149,-4.769 3.574,-4.769 0.718,0 1.42,0.191 1.994,0.526 L 0,0 Z"
               style="fill:#2e2a2b;fill-opacity:1;fill-rule:nonzero;stroke:none"
               id="path318" />
          </g>
          <g
             id="g320"
             transform="translate(305.5148,633.3756)">
            <path
               d="m 0,0 -2.552,0 0,1.212 6.508,0 0,-1.212 -2.552,0 0,-9.923 L 0,-9.923 0,0 Z"
               style="fill:#2e2a2b;fill-opacity:1;fill-rule:nonzero;stroke:none"
               id="path322" />
          </g>
          <g
             id="g324"
             transform="translate(318.9646,624.49)">
            <path
               d="M 0,0 C 1.468,0 2.712,1.212 2.712,4.642 2.712,6.891 2.01,9.061 0.127,9.061 -1.34,9.061 -2.584,7.849 -2.584,4.419 -2.584,2.169 -1.883,0 0,0 M 0.127,10.21 C 2.6,10.21 4.18,8.088 4.18,4.642 4.18,0.798 2.632,-1.149 0,-1.149 c -2.473,0 -4.052,2.122 -4.052,5.568 0,3.845 1.547,5.791 4.179,5.791"
               style="fill:#2e2a2b;fill-opacity:1;fill-rule:nonzero;stroke:none"
               id="path326" />
          </g>
          <g
             id="g328"
             transform="translate(331.6494,629.6427)">
            <path
               d="m 0,0 1.085,0 c 1.499,0 2.074,0.989 2.074,1.962 0,1.244 -0.814,1.835 -2.042,1.835 L 0,3.797 0,0 Z m -1.404,4.945 2.856,0 c 1.181,0 1.834,-0.287 2.345,-0.765 0.574,-0.543 0.83,-1.309 0.83,-2.122 0,-1.181 -0.559,-2.313 -2.202,-2.664 l 0,-0.032 c 0.67,-0.128 0.989,-0.447 1.212,-1.085 l 1.564,-4.467 -1.516,0 -1.276,3.765 C 2.09,-1.5 1.691,-1.149 0.638,-1.149 l -0.638,0 0,-5.041 -1.404,0 0,11.135 z"
               style="fill:#2e2a2b;fill-opacity:1;fill-rule:nonzero;stroke:none"
               id="path330" />
          </g>
        </g>
      </g>
      <g
         transform="matrix(1.25,0,0,-1.25,12.645102,1453.9401)"
         id="g332">
        <g
           id="g334"
           clip-path="url(#clipPath336)">
          <g
             id="g340">
            <g
               id="g342">
              <g
                 id="g344"
                 clip-path="url(#clipPath346)">
                <path
                   d="m 80.838,610.7 c 0,0 0.813,-0.034 1.587,0.457 l 0,0 c 0.919,0.578 22.204,13.153 22.204,13.153 l 0,0 -23.563,13.348 -0.228,-26.958 z"
                   style="fill:url(#linearGradient350);stroke:none"
                   id="path358" />
              </g>
            </g>
          </g>
        </g>
      </g>
      <g
         transform="matrix(1.25,0,0,-1.25,12.645102,1453.9401)"
         id="g360">
        <g
           id="g362"
           clip-path="url(#clipPath364)">
          <g
             id="g368">
            <g
               id="g370">
              <g
                 id="g372"
                 clip-path="url(#clipPath374)">
                <path
                   d="m 128.019,692.219 0.268,-26.78 c 0,0 -44.165,24.617 -46.347,25.807 l 0,0 c -2.186,1.193 -4.284,1.157 -6.169,-0.053 l 0,0 C 74.412,690.325 60.375,681.4 58.536,680.331 l 0,0 c -1.899,-1.106 -2.413,-2.167 -2.413,-2.167 l 0,0 95.188,-54.344 c 0,0 0.49,0.821 0.535,1.827 l 0,0 c 0.035,0.754 -0.599,49.146 -0.631,50.403 l 0,0 c -0.074,2.713 -0.725,4.003 -2.296,4.928 l 0,0 c -1.007,0.593 -12.584,7.229 -18.079,10.298 l 0,0 c -1.535,0.856 -2.395,0.95 -2.697,0.95 l 0,0 c -0.084,0 -0.124,-0.007 -0.124,-0.007"
                   style="fill:url(#linearGradient378);stroke:none"
                   id="path390" />
              </g>
            </g>
          </g>
        </g>
      </g>
      <g
         transform="matrix(1.25,0,0,-1.25,12.645102,1453.9401)"
         id="g392">
        <g
           id="g394"
           clip-path="url(#clipPath396)">
          <g
             id="g400"
             transform="translate(104.0878,678.9251)">
            <path
               d="m 0,0 c 0,0 19.428,11.324 21.078,12.284 1.842,1.074 2.852,1.009 2.852,1.009 L 24.199,-13.485 0,0 Z"
               style="fill:#80d6f7;fill-opacity:1;fill-rule:nonzero;stroke:none"
               id="path402" />
          </g>
          <g
             id="g404"
             transform="translate(56.1228,678.1639)">
            <path
               d="m 0,0 c 0,0 -0.649,-0.854 -0.649,-2.42 0,-1.166 0.328,-40.445 0.4,-49.541 0.008,-1.187 0.148,-1.885 1.837,-2.868 0.465,-0.27 20.733,-11.783 21.379,-12.106 1.067,-0.547 1.772,-0.529 1.772,-0.529 l 0.214,26.919 c 0,0 45.915,-25.973 46.81,-26.468 0.999,-0.553 2.194,-0.577 3.197,-0.006 0.653,0.372 13.482,8.005 18.578,11.035 1.248,0.74 1.65,1.667 1.65,1.667 L 0,0 Z"
               style="fill:#80d6f7;fill-opacity:1;fill-rule:nonzero;stroke:none"
               id="path406" />
          </g>
        </g>
      </g>
    </g>
  </g>
</svg>
