<svg width="24" height="23" viewBox="0 0 24 23" fill="none" xmlns="http://www.w3.org/2000/svg">
  <path fill-rule="evenodd" clip-rule="evenodd" d="M24 1.96661V21.0335C24 21.8434 23.3295 22.5001 22.501 22.5001H19.5C18.1208 22.5001 17.2999 20.95 16.4131 19.2751C15.3709 17.307 14.2377 15.1668 12 15.1668C9.76225 15.1668 8.62899 17.307 7.58691 19.2751C6.70008 20.95 5.87928 22.5001 4.5 22.5001H1.49891C0.670479 22.5001 0 21.8434 0 21.0335V1.96654C0 1.1566 0.670343 0.500013 1.49868 0.5L4.5 0.50009C5.87928 0.50019 6.70007 2.0503 7.58689 3.72513C8.62897 5.69316 9.76224 7.83342 12 7.83342C14.2377 7.83342 15.3709 5.69316 16.4131 3.72513C17.2999 2.05027 18.1208 0.500159 19.5 0.50009L22.5012 0.500026C23.3297 0.500037 24 1.15665 24 1.96661ZM9 11.5C9 9.37694 6.64264 7.63802 5.34034 6.83934C4.96249 6.60761 4.5 6.87982 4.5 7.31594V15.6841C4.5 16.1203 4.96249 16.3924 5.34034 16.1608C6.64264 15.362 9 13.6231 9 11.5ZM18.6315 6.90672C19.0108 6.65293 19.5 6.92387 19.5 7.37337V15.6266C19.5 16.0761 19.0108 16.3472 18.6315 16.0933C17.3236 15.2186 15 13.3973 15 11.5C15 9.60273 17.3236 7.78152 18.6315 6.90672Z" fill="#2F45FF"/>
</svg>
